# AST/ASF file generated using VICON BodyLanguage
# -----------------------------------------------
:version 1.10
:name VICON
:units
  mass 1.0
  length 0.45
  angle deg
:documentation
   .ast/.asf automatically generated from VICON data using
   VICON BodyBuilder and BodyLanguage model FoxedUp or BRILLIANT.MOD
:root
   order TX TY TZ RX RY RZ
   axis XYZ
   position 0 0 0  
   orientation 0 0 0 
:bonedata
  begin
     id 1 
     name lhipjoint
     direction 0.682418 -0.694059 0.22932 
     length 2.25561 
     axis 0 0 0  XYZ
  end
  begin
     id 2 
     name lfemur
     direction 0.34202 -0.939693 0  
     length 6.96448  
     axis 0 0 20  XYZ
    dof rx ry rz
    limits (-160.0 20.0)
           (-70.0 70.0)
           (-60.0 70.0)
  end
  begin
     id 3 
     name ltibia
     direction 0.34202 -0.939693 0   
     length 6.88553   
     axis 0 0 20   XYZ
    dof rx
    limits (-10.0 170.0)
  end
  begin
     id 4 
     name lfoot
     direction 0.0723587 -0.198804 0.977364   
     length 1.88518   
     axis -90 7.62852e-016 20   XYZ
    dof rx rz
    limits (-45.0 90.0)
           (-70.0 20.0)
  end
  begin
     id 5 
     name ltoes
     direction 1.53558e-011 -4.21962e-011 1   
     length 0.952124   
     axis -90 7.62852e-016 20   XYZ
    dof rx
    limits (-90.0 20.0)
  end
  begin
     id 6 
     name rhipjoint
     direction -0.657603 -0.71533 0.236348   
     length 2.18854  
     axis 0 0 0  XYZ 
  end
  begin
     id 7 
     name rfemur
     direction -0.34202 -0.939693 0   
     length 6.86686   
     axis 0 0 -20   XYZ
    dof rx ry rz
    limits (-160.0 20.0)
           (-70.0 70.0)
           (-70.0 60.0)
  end
  begin
     id 8 
     name rtibia
     direction -0.34202 -0.939693 0   
     length 6.59503   
     axis 0 0 -20   XYZ
    dof rx
    limits (-10.0 170.0)
 end
 begin
     id 9 
     name rfoot
     direction -0.101977 -0.280179 0.954516   
     length 1.93723  
     axis -90 -7.62852e-016 -20   XYZ
    dof rx rz
    limits (-45.0 90.0)
           (-20.0 70.0)
  end
  begin
     id 10 
     name rtoes
     direction -1.53564e-011 -4.21897e-011 1   
     length 0.970315   
     axis -90 -7.62852e-016 -20   XYZ
    dof rx
    limits (-90.0 20.0)
  end
  begin
     id 11 
     name lowerback
     direction -0.0339559 0.999421 -0.00235966   
     length 1.88543   
     axis 0 0 0   XYZ
    dof rx ry rz
    limits (-20.0 45.0)
           (-30.0 30.0)
           (-30.0 30.0)
  end
  begin
     id 12 
     name upperback
     direction 0.00401003 0.999739 0.0224689   
     length 1.8856   
     axis 0 0 0   XYZ
    dof rx ry rz
    limits (-20.0 45.0)
           (-30.0 30.0)
           (-30.0 30.0)
  end
  begin
     id 13 
     name thorax
     direction 0.0198619 0.999546 0.0226536   
     length 1.88352   
     axis 0 0 0   XYZ
    dof rx ry rz
    limits (-20.0 45.0)
           (-30.0 30.0)
           (-30.0 30.0)
  end
  begin
     id 14 
     name lowerneck
     direction -0.0461848 0.998632 0.0245198   
     length 1.34895   
     axis 0 0 0   XYZ
    dof rx ry rz
    limits (-20.0 45.0)
           (-30.0 30.0)
           (-30.0 30.0)
  end
  begin
     id 15 
     name upperneck
     direction -0.0180627 0.994724 -0.100984   
     length 1.35214   
     axis 0 0 0   XYZ
    dof rx ry rz
    limits (-20.0 45.0)
           (-30.0 30.0)
           (-30.0 30.0)
  end
  begin
     id 16
     name head
     direction -0.00374772 0.999293 -0.037403  
     length 1.3568  
     axis 0 0 0   XYZ
    dof rx ry rz
    limits (-20.0 45.0)
           (-30.0 30.0)
           (-30.0 30.0)
  end
  begin
     id 17 
     name lclavicle
     direction 0.971773 0.191119 0.138311  
     length 2.84954  
     axis 0 0 0   XYZ
    dof ry rz
    limits (-20.0 10.0)
           (0.0 20.0)
  end
  begin
     id 18 
     name lhumerus
     direction 1 -4.4897e-011 -2.43761e-027   
     length 4.40919   
     axis 180 -30 -90   XYZ
    dof rx ry rz
    limits (-60.0 90.0)
           (-90.0 90.0)
           (-90.0 90.0)
  end
  begin
     id 19
     name lradius
     direction 1 -4.4896e-011 -9.1621e-027   
     length 3.03857   
     axis 180 -30 -90   XYZ
    dof rx
    limits (-10.0 170.0)
  end
  begin
     id 20
     name lwrist
     direction 1 -4.4896e-011 -1.41363e-026   
     length 1.51928   
     axis 1.07133e-014 90 90   XYZ
    dof ry
    limits (-180.0 0.0)
 end
  begin
     id 21 
     name lhand
     direction 1 -4.48978e-011 -2.82725e-026   
     length 0.523208   
     axis 1.80403e-014 90 90   XYZ
    dof rx rz
    limits (-90.0 90.0)
           (-45.0 45.0)
  end
  begin
     id 22 
     name lfingers
     direction 1 -4.48977e-011 -5.6545e-026   
     length 0.421824   
     axis 3.60806e-014 90 90   XYZ
    dof rx
    limits (0.0 90.0)
  end
  begin
     id 23
     name lthumb
     direction 0.707107 -6.34962e-011 0.707107   
     length 0.605657   
     axis -90 45 2.85299e-015   XYZ
    dof rx rz
    limits (-45.0 45.0)
           (-45.0 45.0)
  end
  begin
     id 24 
     name rclavicle
     direction -0.957247 0.24311 0.156766   
     length 3.12406  
     axis 0 0 0   XYZ 
    dof ry rz
    limits (-10.0 20.0)
           (-20.0 0.0)
  end
  begin
     id 25 
     name rhumerus
     direction -1 -4.48964e-011 -1.70632e-027  
     length 4.61969   
     axis 180 30 90   XYZ
    dof rx ry rz
    limits (-90.0 60.0)
           (-90.0 90.0)
           (-90.0 90.0)
  end
  begin
     id 26 
     name rradius
     direction -1 -4.48966e-011 -6.60395e-027   
     length 3.09382   
     axis 180 30 90   XYZ
    dof rx
    limits (-10.0 170.0)
  end
  begin
     id 27 
     name rwrist
     direction -1 -4.48963e-011 -1.41363e-026   
     length 1.54691   
     axis 1.07133e-014 -90 -90   XYZ
    dof ry
    limits (-180.0 0.0)
  end
  begin
     id 28
     name rhand
     direction -1 -4.49013e-011 -2.82725e-026   
     length 0.500896   
     axis 1.80403e-014 -90 -90   XYZ
    dof rx rz
    limits (-90.0 90.0)
           (-45.0 45.0)
  end
  begin
     id 29
     name rfingers
     direction -1 -4.48902e-011 -5.6545e-026   
     length 0.403835   
     axis 3.60806e-014 -90 -90   XYZ
    dof rx
    limits (0.0 90.0)
  end
  begin
     id 30
     name rthumb
     direction -0.707107 -6.34953e-011 0.707107   
     length 0.579829   
     axis -90 -45 -2.85299e-015   XYZ
    dof rx rz
    limits (-45.0 45.0)
           (-45.0 45.0)
  end
:hierarchy
  begin
    root lhipjoint rhipjoint lowerback
    lhipjoint lfemur
    lfemur ltibia
    ltibia lfoot
    lfoot ltoes
    rhipjoint rfemur
    rfemur rtibia
    rtibia rfoot
    rfoot rtoes
    lowerback upperback
    upperback thorax
    thorax lowerneck lclavicle rclavicle
    lowerneck upperneck
    upperneck head
    lclavicle lhumerus
    lhumerus lradius
    lradius lwrist
    lwrist lhand lthumb
    lhand lfingers
    rclavicle rhumerus
    rhumerus rradius
    rradius rwrist
    rwrist rhand rthumb
    rhand rfingers
  end

#!OML:ASF E:\madness\Project 1\Capture day 1\Session 1\Female1.ASF
:FULLY-SPECIFIED
:DEGREES
257
root 4.90871 14.5478 -0.0386772 -156.885 -82.4211 174.422
lowerback 18.3897 -0.105861 -3.38485
upperback 6.1678 -1.066 1.2064
thorax -3.58448 -0.716029 3.43738
lowerneck -5.06752 -6.57146 -7.28121
upperneck -11.0129 -8.4012 8.76824
head -1.95424 -4.32562 4.15454
rclavicle -4.5969e-015 -2.79168e-014
rhumerus 52.1039 9.38173 -73.2881
rradius 137.956
rwrist -15.7309
rhand -11.9698 -52.0474
rfingers 7.12502
rthumb 14.0861 -81.55
lclavicle -4.5969e-015 -2.79168e-014
lhumerus 47.53 -30.8939 72.2841
lradius 127.879
lwrist 6.87705
lhand -46.672 -10.554
lfingers 7.12502
lthumb -19.392 18.499
rfemur -58.3094 2.29206 11.2063
rtibia 56.1577
rfoot -13.3227 -4.9112
rtoes 3.57424
lfemur -46.083 -3.74908 -17.2727
ltibia 64.6977
lfoot -29.8919 13.9293
ltoes -10.3522
258
root 4.94192 14.5399 0.00221763 -157.258 -82.1864 174.771
lowerback 18.6053 -0.0992341 -3.48197
upperback 6.25591 -1.09197 1.21265
thorax -3.59865 -0.735259 3.50896
lowerneck -4.96846 -6.35685 -7.16644
upperneck -11.0536 -8.13503 8.52367
head -2.02389 -4.19147 4.06165
rclavicle -1.28465e-014 -3.97569e-015
rhumerus 52.2092 9.89088 -73.3794
rradius 137.745
rwrist -15.8166
rhand -12.0871 -52.2808
rfingers 7.12502
rthumb 13.9731 -81.7913
lclavicle -1.28465e-014 -3.97569e-015
lhumerus 47.7427 -30.5126 72.1349
lradius 127.653
lwrist 7.38106
lhand -46.7129 -9.89456
lfingers 7.12502
lthumb -19.4313 19.1545
rfemur -58.412 2.46717 10.9786
rtibia 56.0445
rfoot -13.1876 -4.83189
rtoes 3.96133
lfemur -46.2783 -3.62513 -17.4529
ltibia 64.8927
lfoot -29.8922 13.8486
ltoes -10.1337
259
root 4.9822 14.5226 0.0418416 -157.878 -81.5525 175.652
lowerback 18.3872 0.103385 -3.87451
upperback 6.38706 -0.895007 1.27024
thorax -3.35252 -0.653598 3.74616
lowerneck -4.83522 -6.22752 -7.14485
upperneck -11.214 -7.98706 8.25572
head -2.12675 -4.11561 3.981
rclavicle 2.26118e-014 -7.05686e-015
rhumerus 52.5153 10.1804 -73.3374
rradius 137.608
rwrist -16.0204
rhand -12.0728 -52.2813
rfingers 7.12502
rthumb 13.9868 -81.7908
lclavicle 2.26118e-014 -7.05686e-015
lhumerus 48.1145 -30.1066 72.0293
lradius 127.486
lwrist 7.81022
lhand -46.8241 -9.02302
lfingers 7.12502
lthumb -19.5382 20.0153
rfemur -59.0313 2.86889 10.7225
rtibia 55.9517
rfoot -12.8638 -4.67576
rtoes 3.37847
lfemur -46.8093 -3.04611 -17.6892
ltibia 65.1227
lfoot -29.9624 13.6021
ltoes -9.61035
260
root 5.00666 14.5241 0.0903819 -157.552 -81.5701 174.885
lowerback 19.1894 0.0339936 -3.8729
upperback 6.45524 -1.03369 1.26949
thorax -3.6849 -0.722786 3.79247
lowerneck -4.95421 -6.09166 -7.09565
upperneck -10.9501 -7.81512 7.99016
head -2.04385 -4.01818 3.8674
rclavicle 2.42269e-014 4.38072e-014
rhumerus 52.6261 10.3387 -73.4058
rradius 137.405
rwrist -16.3705
rhand -11.9554 -52.1313
rfingers 7.12502
rthumb 14.1 -81.6329
lclavicle 2.42269e-014 4.38072e-014
lhumerus 48.2683 -29.7836 72.0801
lradius 127.246
lwrist 8.13963
lhand -46.9363 -8.43875
lfingers 7.12502
lthumb -19.646 20.5885
rfemur -58.6159 2.74771 10.4836
rtibia 55.8802
rfoot -12.7623 -4.64245
rtoes 2.62147
lfemur -46.5208 -3.2389 -17.933
ltibia 65.2419
lfoot -30.0608 13.4091
ltoes -8.44799
261
root 5.04264 14.504 0.134777 -156.791 -81.6631 174.288
lowerback 19.2629 -0.175229 -3.95264
upperback 6.35525 -1.31159 1.37304
thorax -3.79918 -0.852651 4.01286
lowerneck -4.78407 -5.82172 -7.30584
upperneck -10.8414 -7.46582 7.75885
head -2.06825 -3.8268 3.83786
rclavicle 3.87879e-014 3.32964e-014
rhumerus 52.711 10.8986 -73.4145
rradius 137.156
rwrist -16.6784
rhand -11.8145 -51.9044
rfingers 7.12502
rthumb 14.2358 -81.3965
lclavicle 3.87879e-014 3.32964e-014
lhumerus 48.2675 -29.1715 72.2574
lradius 126.911
lwrist 8.42703
lhand -47.0617 -8.49788
lfingers 7.12502
lthumb -19.7666 20.517
rfemur -58.9924 2.52539 10.2098
rtibia 55.8803
rfoot -12.6007 -4.64811
rtoes 2.13546
lfemur -47.1053 -3.46077 -18.0748
ltibia 65.472
lfoot -29.9175 13.1933
ltoes -7.40404
262
root 5.0813 14.4797 0.174224 -156.442 -81.4301 174.132
lowerback 19.2768 -0.147261 -4.14097
upperback 6.29512 -1.30673 1.38364
thorax -3.86593 -0.846664 4.13249
lowerneck -4.43251 -5.54537 -7.05952
upperneck -10.92 -7.1423 7.31611
head -2.20788 -3.6636 3.66349
rclavicle 2.61899e-014 1.78906e-015
rhumerus 52.4351 11.8864 -73.2252
rradius 137.199
rwrist -16.1817
rhand -11.7118 -51.8687
rfingers 7.12502
rthumb 14.3347 -81.3538
lclavicle 2.61899e-014 1.78906e-015
lhumerus 48.4497 -28.9237 72.2505
lradius 126.693
lwrist 8.69862
lhand -47.1299 -8.51026
lfingers 7.12502
lthumb -19.8322 20.4979
rfemur -59.4963 2.63575 9.87395
rtibia 55.8968
rfoot -12.3858 -4.55539
rtoes 2.00539
lfemur -47.711 -3.30689 -18.3076
ltibia 65.7248
lfoot -29.6985 13.0531
ltoes -7.35531
263
root 5.11556 14.4618 0.21619 -156.628 -81.0565 174.246
lowerback 19.5321 -0.0470629 -4.41479
upperback 6.36301 -1.24606 1.4356
thorax -3.92319 -0.823207 4.33829
lowerneck -4.14594 -5.39281 -7.44676
upperneck -10.9984 -6.93844 7.36292
head -2.2885 -3.54915 3.77087
rclavicle -1.13307e-014 3.72721e-015
rhumerus 52.9159 11.7101 -73.154
rradius 136.917
rwrist -17.0126
rhand -11.7861 -52.343
rfingers 7.12502
rthumb 14.2631 -81.8332
lclavicle -1.13307e-014 3.72721e-015
lhumerus 48.6621 -28.6711 72.2087
lradius 126.643
lwrist 8.82129
lhand -47.1735 -8.21756
lfingers 7.12502
lthumb -19.8741 20.7863
rfemur -59.6907 2.86358 9.57385
rtibia 55.9016
rfoot -12.1572 -4.39864
rtoes 2.03106
lfemur -47.9157 -3.08003 -18.5805
ltibia 66.0099
lfoot -29.6476 13.0675
ltoes -7.48075
264
root 5.14415 14.4434 0.262226 -156.825 -80.8357 174.351
lowerback 19.7708 -0.0401431 -4.44404
upperback 6.44905 -1.26429 1.43399
thorax -3.95197 -0.838379 4.36301
lowerneck -3.99189 -5.20948 -7.71962
upperneck -11.0838 -6.69165 7.40561
head -2.35631 -3.41708 3.85107
rclavicle -1.49089e-015 2.39536e-014
rhumerus 53.4545 11.7398 -73.127
rradius 136.483
rwrist -17.596
rhand -11.9324 -52.3164
rfingers 7.12502
rthumb 14.1221 -81.8165
lclavicle -1.49089e-015 2.39536e-014
lhumerus 48.8143 -28.3918 72.1875
lradius 126.531
lwrist 8.96751
lhand -47.2832 -8.07264
lfingers 7.12502
lthumb -19.9795 20.9202
rfemur -59.8049 2.91201 9.33893
rtibia 55.8822
rfoot -11.9564 -4.24601
rtoes 1.85041
lfemur -48.0515 -2.9673 -18.864
ltibia 66.3225
lfoot -29.5681 13.4974
ltoes -8.12107
265
root 5.17159 14.4262 0.303213 -157.382 -80.4385 174.985
lowerback 19.909 0.0262385 -4.54084
upperback 6.42246 -1.20604 1.41518
thorax -4.05639 -0.807385 4.39
lowerneck -3.9724 -4.9876 -7.6511
upperneck -11.0376 -6.41282 7.13323
head -2.37816 -3.27109 3.74651
rclavicle -5.11871e-015 4.37823e-014
rhumerus 53.843 11.7911 -73.1561
rradius 135.975
rwrist -18.008
rhand -11.9256 -51.9362
rfingers 7.12502
rthumb 14.1287 -81.4358
lclavicle -5.11871e-015 4.37823e-014
lhumerus 48.7611 -28.1454 72.2416
lradius 126.403
lwrist 9.01861
lhand -47.3622 -7.77451
lfingers 7.12502
lthumb -20.0555 21.2104
rfemur -60.1231 3.1552 9.11225
rtibia 55.8279
rfoot -11.6521 -4.14435
rtoes 1.74037
lfemur -48.3496 -2.63428 -19.1017
ltibia 66.6389
lfoot -29.4865 13.9206
ltoes -8.66775
266
root 5.20506 14.4069 0.343326 -158.162 -80.0024 175.889
lowerback 20.1974 0.110359 -4.66863
upperback 6.28198 -1.13125 1.42496
thorax -4.36164 -0.757286 4.46821
lowerneck -3.84485 -4.79112 -7.48109
upperneck -10.9935 -6.18282 6.75191
head -2.42086 -3.1508 3.58848
rclavicle -9.69075e-015 -3.46879e-014
rhumerus 54.0578 11.9333 -73.1592
rradius 135.549
rwrist -18.3529
rhand -11.8573 -52.1169
rfingers 7.12502
rthumb 14.1946 -81.6119
lclavicle -9.69075e-015 -3.46879e-014
lhumerus 48.6201 -27.8798 72.2883
lradius 126.323
lwrist 8.92002
lhand -47.3156 -7.40022
lfingers 7.12502
lthumb -20.0107 21.5894
rfemur -60.5512 3.47647 8.91917
rtibia 55.7778
rfoot -11.3064 -4.10183
rtoes 1.68962
lfemur -48.7798 -2.24792 -19.2479
ltibia 66.9976
lfoot -29.4617 14.0379
ltoes -8.69304
267
root 5.24188 14.3833 0.388292 -158.487 -79.7076 176.322
lowerback 19.9792 0.173322 -4.86246
upperback 6.52793 -1.08632 1.53018
thorax -3.98137 -0.761612 4.67172
lowerneck -3.5231 -4.56015 -7.58009
upperneck -11.4678 -5.90791 6.60509
head -2.66476 -3.01141 3.58916
rclavicle -1.99282e-014 3.32467e-014
rhumerus 54.8332 11.9144 -72.8747
rradius 135.205
rwrist -18.8217
rhand -11.8067 -52.5924
rfingers 7.12502
rthumb 14.2432 -82.084
lclavicle -1.99282e-014 3.32467e-014
lhumerus 49.182 -27.3035 72.245
lradius 126.11
lwrist 8.79701
lhand -47.1685 -7.32101
lfingers 7.12502
lthumb -19.8693 21.6833
rfemur -60.9621 3.66222 8.67286
rtibia 55.7165
rfoot -10.9957 -4.07569
rtoes 1.70768
lfemur -49.2538 -2.00213 -19.44
ltibia 67.3434
lfoot -29.4428 13.9481
ltoes -8.17752
268
root 5.2815 14.3563 0.436432 -158.598 -79.3686 176.777
lowerback 19.7789 0.151816 -4.79686
upperback 6.55517 -1.09739 1.43105
thorax -3.85132 -0.770361 4.52332
lowerneck -3.41871 -4.28996 -7.50346
upperneck -11.6622 -5.5658 6.44504
head -2.78362 -2.84018 3.53304
rclavicle 5.54609e-014 2.37548e-014
rhumerus 55.367 11.9596 -72.8216
rradius 134.913
rwrist -19.2652
rhand -12.067 -53.0374
rfingers 7.12502
rthumb 13.9924 -82.5465
lclavicle 5.54609e-014 2.37548e-014
lhumerus 49.4788 -26.8191 72.151
lradius 125.926
lwrist 8.85472
lhand -46.9846 -7.21611
lfingers 7.12502
lthumb -19.6924 21.8064
rfemur -61.6616 3.84454 8.35921
rtibia 55.6383
rfoot -10.6282 -4.05085
rtoes 1.99955
lfemur -50.0317 -1.73766 -19.6532
ltibia 67.7195
lfoot -29.4224 13.8034
ltoes -7.81862
